<svg width="272" height="272" viewBox="0 0 272 272" xmlns="http://www.w3.org/2000/svg" xmlns:xlink="http://www.w3.org/1999/xlink"><svg id="ai-m" viewBox="8 -13 34 34" width="34" height="34" x="34"><style>.aast0{fill:none}.aast1{fill:#7c848e}</style><path class="aast0" d="M-279.5-2217.5h-2v-2c0-4.4-3.6-8-8-8s-8 3.6-8 8v2h-2.1v4h.1v8h-.1v4h20v-16h.1zm-4 12h-12v-8h12v8zm0-12h-12 2v-2c0-2.2 1.8-4 4-4s4 1.8 4 4v2h2zm-32-22v30.5s.2 21.6 26 27.5c25.8-5.9 26-27.5 26-27.5v-30.5h-52zm48 30.4s-.1 4.6-2.8 9.7c-3.6 6.9-10.1 11.5-19.2 13.8-21.4-5.4-22-22.7-22-23.4v-26.5h44v26.4z"/><path class="aast1" d="M13.7-6H37V9h2V-8H13.7c-.3-.6-1-1-1.7-1-1.1 0-2 .9-2 2s.9 2 2 2c.7 0 1.4-.4 1.7-1zM17 12h2c0-3 1.7-3 5-3h2c3 0 5 0 5 3h2c0-4-3-5-7-5h-2c-4.4 0-7 1-7 5zM29 1c0-2.2-1.8-4-4-4s-4 1.8-4 4 1.8 4 4 4 4-1.8 4-4zm-6 0c0-1.1.9-2 2-2s2 .9 2 2-.9 2-2 2-2-.9-2-2zm15 12c-.7 0-1.4.4-1.7 1H13V-1h-2v17h25.3c.3.6 1 1 1.7 1 1.1 0 2-.9 2-2s-.9-2-2-2z"/></svg><svg id="ai-m-actived" viewBox="8 -13 34 34" width="34" height="34" y="170"><style>.abst0{fill:none}.abst1{fill:#00a4ff}</style><path class="abst0" d="M-279.5-2217.5h-2v-2c0-4.4-3.6-8-8-8s-8 3.6-8 8v2h-2.1v4h.1v8h-.1v4h20v-16h.1zm-4 12h-12v-8h12v8zm0-12h-12 2v-2c0-2.2 1.8-4 4-4s4 1.8 4 4v2h2zm-32-22v30.5s.2 21.6 26 27.5c25.8-5.9 26-27.5 26-27.5v-30.5h-52zm48 30.4s-.1 4.6-2.8 9.7c-3.6 6.9-10.1 11.5-19.2 13.8-21.4-5.4-22-22.7-22-23.4v-26.5h44v26.4z"/><path class="abst1" d="M17 12h2c0-3 1.7-3 5-3h2c3 0 5 0 5 3h2c0-4-3-5-7-5h-2c-4.4 0-7 1-7 5zM13.7-6H37V9h2V-8H13.7c-.3-.6-1-1-1.7-1-1.1 0-2 .9-2 2s.9 2 2 2c.7 0 1.4-.4 1.7-1zM29 1c0-2.2-1.8-4-4-4s-4 1.8-4 4 1.8 4 4 4 4-1.8 4-4zm-6 0c0-1.1.9-2 2-2s2 .9 2 2-.9 2-2 2-2-.9-2-2zm15 12c-.7 0-1.4.4-1.7 1H13V-1h-2v17h25.3c.3.6 1 1 1.7 1 1.1 0 2-.9 2-2s-.9-2-2-2z"/></svg><svg id="arrow-down" viewBox="-1 -1 16 10" width="16" height="10" x="102" y="238"><style>.acst0{fill-rule:evenodd;clip-rule:evenodd;fill:#666}</style><g id="acXMLID_2_"><g id="acXMLID_22_"><path id="acXMLID_23_" class="acst0" d="M12.3 0L7 5.3 1.7 0 .3 1.3 7 8l6.7-6.7z"/></g></g></svg><svg width="16" height="10" viewBox="-1 -1 16 10" id="arrow-down-#00a4ff" x="86" y="238"><style>.adst0{fill-rule:evenodd;clip-rule:evenodd;fill:#00a4ff}</style><path class="adst0" d="M12.3 0L7 5.3 1.7 0 .3 1.3 7 8l6.7-6.7z"/></svg><svg version="undefined" width="34" height="34" viewBox="-1 -1 34 34" id="ask-#00a4ff" x="68"><defs><style>.cls-1{fill:#00a4ff}.aecls-2{opacity:0}.aecls-3{fill:#00a4ff}.aecls-4{stroke:#979797}.aecls-4,.aecls-5{fill:#00a4ff}.aecls-6{mask:url(#mask)}</style></defs><g class="aecls-2"><path class="aecls-3" d="M0 0h32v32H0z"/><path class="aecls-4" d="M.5.5h31v31H.5z"/></g><path class="aecls-5" d="M1 1v22h4v6l6-6h2v4h8l6 5v-5h4V12h-4V1zm2 2h22v18H10l-3 3v-3H3zm12 20h12v-9h2v11h-4v3l-3-3h-7z"/><path class="aecls-5" d="M17.889 9.041A3.993 3.993 0 0 0 10.142 9h2.136a1.994 1.994 0 1 1 2.922 2.59.938.938 0 0 1-.438.166h-.036A2 2 0 0 0 13 13.741V15h2v-1.142a4 4 0 0 0 2.889-4.817"/><path class="aecls-6 aecls-5" d="M13 18h2v-2h-2v2z"/></svg><svg version="undefined" width="34" height="34" viewBox="-1 -1 34 34" id="ask-#7C848E" x="68" y="34"><defs><style>.cls-1{fill:#7c848e}.afcls-2{opacity:0}.afcls-3{fill:#7c848e}.afcls-4{stroke:#979797}.afcls-4,.afcls-5{fill:#7c848e}.afcls-6{mask:url(#mask)}</style></defs><g class="afcls-2"><path class="afcls-3" d="M0 0h32v32H0z"/><path class="afcls-4" d="M.5.5h31v31H.5z"/></g><path class="afcls-5" d="M1 1v22h4v6l6-6h2v4h8l6 5v-5h4V12h-4V1zm2 2h22v18H10l-3 3v-3H3zm12 20h12v-9h2v11h-4v3l-3-3h-7z"/><path class="afcls-5" d="M17.889 9.041A3.993 3.993 0 0 0 10.142 9h2.136a1.994 1.994 0 1 1 2.922 2.59.938.938 0 0 1-.438.166h-.036A2 2 0 0 0 13 13.741V15h2v-1.142a4 4 0 0 0 2.889-4.817"/><path class="afcls-6 afcls-5" d="M13 18h2v-2h-2v2z"/></svg><svg id="big-data-m" viewBox="-1 -1 34 34" width="34" height="34" y="68"><style>.agst0{fill:none}.agst1{fill-rule:evenodd;clip-rule:evenodd;fill:#7c848e}</style><path class="agst0" d="M-288.5-2205.5h-2v-2c0-4.4-3.6-8-8-8s-8 3.6-8 8v2h-2.1v4h.1v8h-.1v4h20v-16zm-4 12h-12v-8h12v8zm0-12h-12 2v-2c0-2.2 1.8-4 4-4s4 1.8 4 4v2h2zm-32-22v30.5s.2 21.6 26 27.5c25.8-5.9 26-27.5 26-27.5v-30.5h-52zm48 30.4s-.1 4.6-2.8 9.7c-3.6 6.9-10.1 11.5-19.2 13.8-21.4-5.4-22-22.7-22-23.4v-26.5h44v26.4z"/><g id="agXMLID_18_"><g id="agXMLID_94_"><path id="agXMLID_95_" class="agst1" d="M4.7 6H28v15h2V4H4.7c-.3-.6-1-1-1.7-1-1.1 0-2 .9-2 2s.9 2 2 2c.7 0 1.4-.4 1.7-1zM29 25c-.7 0-1.4.4-1.7 1H4V11H2v17h25.3c.3.6 1 1 1.7 1 1.1 0 2-.9 2-2s-.9-2-2-2zm-16-1h13v-2h-1V12h-5v10h-1V10h-5v12h-1v-5H8v5H6v2h7zm9-10h1v8h-1v-8zm-6-2h1v10h-1V12zm-6 10v-3h1v3h-1z"/></g></g></svg><svg id="big-data-m-actived" viewBox="-1 -1 34 34" width="34" height="34" x="34" y="68"><style>.ahst0{fill:none}.ahst1{fill-rule:evenodd;clip-rule:evenodd;fill:#00a4ff}</style><path class="ahst0" d="M-288.5-2205.5h-2v-2c0-4.4-3.6-8-8-8s-8 3.6-8 8v2h-2.1v4h.1v8h-.1v4h20v-16zm-4 12h-12v-8h12v8zm0-12h-12 2v-2c0-2.2 1.8-4 4-4s4 1.8 4 4v2h2zm-32-22v30.5s.2 21.6 26 27.5c25.8-5.9 26-27.5 26-27.5v-30.5h-52zm48 30.4s-.1 4.6-2.8 9.7c-3.6 6.9-10.1 11.5-19.2 13.8-21.4-5.4-22-22.7-22-23.4v-26.5h44v26.4z"/><g id="ahXMLID_18_"><g id="ahXMLID_95_"><path id="ahXMLID_96_" class="ahst1" d="M13 24h13v-2h-1V12h-5v10h-1V10h-5v12h-1v-5H8v5H6v2h7zm9-10h1v8h-1v-8zm-6-2h1v10h-1V12zm-6 10v-3h1v3h-1zM4.7 6H28v15h2V4H4.7c-.3-.6-1-1-1.7-1-1.1 0-2 .9-2 2s.9 2 2 2c.7 0 1.4-.4 1.7-1zM29 25c-.7 0-1.4.4-1.7 1H4V11H2v17h25.3c.3.6 1 1 1.7 1 1.1 0 2-.9 2-2s-.9-2-2-2z"/></g></g></svg><svg id="cdn-m" viewBox="8 -13 34 34" width="34" height="34" x="68" y="68"><style>.aist0{fill:#7c848e}</style><path class="aist0" d="M37 .3v10.8L25 18l-12-6.9V-3.1L25-10l11.6 6.6 1.6-1.1L25-12 11-4v16l14 8 14-8V-1L37 .3zM29 12V1l-8-4v1.6L27 2v8.8l2 1.2zM17 9l8 5V3l-8-4V9zm2-7l4 2v6l-4-2V2zm14 8V-1l-9-5v1.6L31 0v8.9l2 1.1z"/></svg><svg id="cdn-m-actived" viewBox="8 -13 34 34" width="34" height="34" x="102"><style>.ajst0{fill:#00a4ff}</style><path class="ajst0" d="M37 .3v10.8L25 18l-12-6.9V-3.1L25-10l11.6 6.6 1.6-1.1L25-12 11-4v16l14 8 14-8V-1L37 .3zM33 10V-1l-9-5v1.6L31 0v8.9l2 1.1zm-4 2V1l-8-4v1.6L27 2v8.8l2 1.2zM17 9l8 5V3l-8-4V9zm2-7l4 2v6l-4-2V2z"/></svg><svg version="undefined" width="34" height="34" viewBox="-1 -1 34 34" id="column-#00a4ff" x="102" y="34"><defs><style>.cls-1{fill:#00a4ff}.akcls-2{opacity:0}.akcls-3{fill:#00a4ff}.akcls-4{stroke:#979797}.akcls-4,.akcls-5{fill:#00a4ff}.akcls-6{mask:url(#mask)}</style></defs><g class="akcls-2"><path class="akcls-3" d="M0 0h32v32H0z"/><path class="akcls-4" d="M.5.5h31v31H.5z"/></g><path class="akcls-5" d="M29 28a1 1 0 0 1-2 0V15h2zm-4 1H3V3h22v25a2.962 2.962 0 0 0 .184 1zm2-16V1H1v30h27a3 3 0 0 0 3-3V13z"/><path class="akcls-6 akcls-5" d="M6 10h6V8H6v2zM6 15h16v-2H6v2zM6 20h16v-2H6v2zM6 25h16v-2H6v2z"/></svg><svg version="undefined" width="34" height="34" viewBox="-1 -1 34 34" id="column-#7C848E" x="102" y="68"><defs><style>.cls-1{fill:#7c848e}.alcls-2{opacity:0}.alcls-3{fill:#7c848e}.alcls-4{stroke:#979797}.alcls-4,.alcls-5{fill:#7c848e}.alcls-6{mask:url(#mask)}</style></defs><g class="alcls-2"><path class="alcls-3" d="M0 0h32v32H0z"/><path class="alcls-4" d="M.5.5h31v31H.5z"/></g><path class="alcls-5" d="M29 28a1 1 0 0 1-2 0V15h2zm-4 1H3V3h22v25a2.962 2.962 0 0 0 .184 1zm2-16V1H1v30h27a3 3 0 0 0 3-3V13z"/><path class="alcls-6 alcls-5" d="M6 10h6V8H6v2zM6 15h16v-2H6v2zM6 20h16v-2H6v2zM6 25h16v-2H6v2z"/></svg><svg id="communicate-m" viewBox="8 -13 34 34" width="34" height="34" y="102"><style>.amst0{fill:none}.amst1{fill:#7c848e}</style><path class="amst0" d="M-279.5-2217.5h-2v-2c0-4.4-3.6-8-8-8s-8 3.6-8 8v2h-2.1v4h.1v8h-.1v4h20v-16h.1zm-4 12h-12v-8h12v8zm0-12h-12 2v-2c0-2.2 1.8-4 4-4s4 1.8 4 4v2h2zm-32-22v30.5s.2 21.6 26 27.5c25.8-5.9 26-27.5 26-27.5v-30.5h-52zm48 30.4s-.1 4.6-2.8 9.7c-3.6 6.9-10.1 11.5-19.2 13.8-21.4-5.4-22-22.7-22-23.4v-26.5h44v26.4z"/><path class="amst1" d="M27 13v-2h-4v2h4zm9 0v-24H14v30h22v-2H16V-9h18v22h2zM32-1h-2v2H18l4 4V3h10v-4zM22-2v2h2v-2h-2zm4 0v2h2v-2h-2zm2-5v2H18v4h2v-2h12l-4-4z"/></svg><svg id="communicate-m-actived" viewBox="8 -13 34 34" width="34" height="34" x="34" y="102"><style>.anst0{fill:none}.anst1{fill:#00a4ff}</style><path class="anst0" d="M-279.5-2217.5h-2v-2c0-4.4-3.6-8-8-8s-8 3.6-8 8v2h-2.1v4h.1v8h-.1v4h20v-16h.1zm-4 12h-12v-8h12v8zm0-12h-12 2v-2c0-2.2 1.8-4 4-4s4 1.8 4 4v2h2zm-32-22v30.5s.2 21.6 26 27.5c25.8-5.9 26-27.5 26-27.5v-30.5h-52zm48 30.4s-.1 4.6-2.8 9.7c-3.6 6.9-10.1 11.5-19.2 13.8-21.4-5.4-22-22.7-22-23.4v-26.5h44v26.4z"/><path class="anst1" d="M27 13v-2h-4v2h4zm9 0v-24H14v30h22v-2H16V-9h18v22h2zM28-7v2H18v4h2v-2h12l-4-4zm4 6h-2v2H18l4 4V3h10v-4zm-6-1v2h2v-2h-2zm-4 0v2h2v-2h-2z"/></svg><svg id="compute-m" viewBox="-1 -1 34 34" width="34" height="34" x="68" y="102"><style>.aost0{fill-rule:evenodd;clip-rule:evenodd;fill:#7c848e}</style><g id="aoXMLID_34_"><g id="aoXMLID_48_"><path id="aoXMLID_50_" class="aost0" d="M16 29C8.8 29 3 23.2 3 16S8.8 3 16 3c6.5 0 11.9 4.8 12.8 11h2C29.9 6.7 23.6 1 16 1 7.7 1 1 7.7 1 16s6.7 15 15 15c7.6 0 13.9-5.7 14.9-13h-2c-1 6.2-6.4 11-12.9 11zm7-15v-2l-7-4v2l5.3 3-5.3 3v2l5-2.9v4l-3.9 2.2c-.3-.2-.7-.3-1.1-.3-1.1 0-2 .9-2 2s.9 2 2 2 2-.9 2-2v-.1l5-2.9v-6zm-7 4v-2l-5.3-3 5.3-3V8l-7 4v8l3.2 1.8c.2-.6.5-1.1.9-1.5L11 19.1v-4l5 2.9z"/></g></g></svg><svg id="compute-m-actived" viewBox="-1 -1 34 34" width="34" height="34" x="102" y="102"><style>.apst0{fill-rule:evenodd;clip-rule:evenodd;fill:#00a4ff}</style><g id="apXMLID_34_"><g id="apXMLID_48_"><path id="apXMLID_50_" class="apst0" d="M16 29C8.8 29 3 23.2 3 16S8.8 3 16 3c6.5 0 11.9 4.8 12.8 11h2C29.9 6.7 23.6 1 16 1 7.7 1 1 7.7 1 16s6.7 15 15 15c7.6 0 13.9-5.7 14.9-13h-2c-1 6.2-6.4 11-12.9 11zm0-11v-2l-5.3-3 5.3-3V8l-7 4v8l3.2 1.8c.2-.6.5-1.1.9-1.5L11 19.1v-4l5 2.9zm7-4v-2l-7-4v2l5.3 3-5.3 3v2l5-2.9v4l-3.9 2.2c-.3-.2-.7-.3-1.1-.3-1.1 0-2 .9-2 2s.9 2 2 2 2-.9 2-2v-.1l5-2.9v-6z"/></g></g></svg><svg width="34" height="34" viewBox="-1 -1 34 34" id="data-process-m" x="136"><path fill="#7C848E" d="M0 2.984v2.01h30.086v18.059h2.078V2.984H0zM2.078 8.98H0v20.035h32.082v-2H2.078V8.98zm8.978 4.021h15.077L22.111 8.98v2.01H11.056c-1.608 0-3.016 1.407-3.016 3.015s1.408 3.016 3.016 3.016h3.015v-2.01h-3.015c-.603 0-1.005-.403-1.005-1.005s.403-1.005 1.005-1.005zm-1.005 10.052v-2.012h11.057c1.607 0 3.016-1.406 3.016-3.016 0-1.607-1.408-3.014-3.016-3.014h-3.016v2.01h3.016c.602 0 1.004.402 1.004 1.004 0 .604-.402 1.006-1.004 1.006H6.031l4.02 4.022z"/></svg><svg width="34" height="34" viewBox="-1 -1 34 34" id="data-process-m-actived" x="136" y="34"><path fill="#00A4FF" d="M0 2.984v2.01h30.086v18.059h2.078V2.984H0zM2.078 8.98H0v20.035h32.082v-2H2.078V8.98zm8.978 4.021h15.077L22.111 8.98v2.01H11.056c-1.608 0-3.016 1.407-3.016 3.015s1.408 3.016 3.016 3.016h3.015v-2.01h-3.015c-.603 0-1.005-.403-1.005-1.005s.403-1.005 1.005-1.005zm-1.005 10.052v-2.012h11.057c1.607 0 3.016-1.406 3.016-3.016 0-1.607-1.408-3.014-3.016-3.014h-3.016v2.01h3.016c.602 0 1.004.402 1.004 1.004 0 .604-.402 1.006-1.004 1.006H6.031l4.02 4.022z"/></svg><svg id="database-m" viewBox="-1 -1 34 34" width="34" height="34" x="136" y="68"><style>.asst0{fill:#7c848e}</style><g id="asXMLID_2_"><g id="asXMLID_71_"><path id="asXMLID_72_" class="asst0" d="M13.2 21c.3-.3.7-.6 1.1-.9.1-.4.2-.8.4-1.1h-.6c-5.5 0-10-1.3-10-3V9.8c2 1.4 5.7 2.2 9.9 2.2s7.9-.9 10-2.2v4.5c.7.2 1.4.5 2 .8V7c0-2.8-5.4-5-12-5S2 4.3 2 7v18c0 2.5 4.4 4.6 10.2 4.9-.4-.6-.7-1.3-.9-2.1C7.1 27.6 4 26.4 4 25v-6.2c2 1.3 5.3 2.1 9.2 2.2zM14 4c5.5 0 10 1.3 10 3s-4.5 3-10 3S4 8.7 4 7c0-1.6 4.5-3 10-3zm13 18.2v-.1c0-2.8-2.2-5-5-5s-5 2.2-5 5v.1c-1.7.4-3 2-3 3.9 0 2.2 1.8 4 4 4h8c2.2 0 4-1.8 4-4 0-1.9-1.3-3.5-3-3.9zM26 28h-8c-1.1 0-2-.9-2-2 0-.9.6-1.7 1.5-1.9l1.5-.4v-1.8c0-1.6 1.4-2.9 3-2.9s2.9 1.3 3 2.9v1.8l1.5.4c.9.2 1.5 1 1.5 1.9 0 1.1-.9 2-2 2z"/></g></g></svg><svg id="database-m-actived" viewBox="-1 -1 34 34" width="34" height="34" x="136" y="102"><style>.atst0{fill:#00a4ff}</style><g id="atXMLID_2_"><g id="atXMLID_71_"><path id="atXMLID_72_" class="atst0" d="M13.2 21c.3-.3.7-.6 1.1-.9.1-.4.2-.8.4-1.1h-.6c-5.5 0-10-1.3-10-3V9.8c2 1.4 5.7 2.2 9.9 2.2s7.9-.9 10-2.2v4.5c.7.2 1.4.5 2 .8V7c0-2.8-5.4-5-12-5S2 4.3 2 7v18c0 2.5 4.4 4.6 10.2 4.9-.4-.6-.7-1.3-.9-2.1C7.1 27.6 4 26.4 4 25v-6.2c2 1.3 5.3 2.1 9.2 2.2zM14 4c5.5 0 10 1.3 10 3s-4.5 3-10 3S4 8.7 4 7c0-1.6 4.5-3 10-3zm13 18.2v-.1c0-2.8-2.2-5-5-5s-5 2.2-5 5v.1c-1.7.4-3 2-3 3.9 0 2.2 1.8 4 4 4h8c2.2 0 4-1.8 4-4 0-1.9-1.3-3.5-3-3.9zM26 28h-8c-1.1 0-2-.9-2-2 0-.9.6-1.7 1.5-1.9l1.5-.4v-1.8c0-1.6 1.4-2.9 3-2.9s2.9 1.3 3 2.9v1.8l1.5.4c.9.2 1.5 1 1.5 1.9 0 1.1-.9 2-2 2z"/></g></g></svg><svg id="developer-m" viewBox="8 -13 34 34" width="34" height="34" y="136"><style>.aust0{fill:none}.aust1{fill:#7c848e}</style><path class="aust0" d="M-270.5-2229.5h-2v-2c0-4.4-3.6-8-8-8s-8 3.6-8 8v2h-2.1v4h.1v8h-.1v4h20v-16h.1zm-4 12h-12v-8h12v8zm0-12h-12 2v-2c0-2.2 1.8-4 4-4s4 1.8 4 4v2h2zm-32-22v30.5s.2 21.6 26 27.5c25.8-5.9 26-27.5 26-27.5v-30.5h-52zm48 30.4s-.1 4.6-2.8 9.7c-3.6 6.9-10.1 11.5-19.2 13.8-21.4-5.4-22-22.7-22-23.4v-26.5h44v26.4z"/><path class="aust1" d="M40 10V-8H10v24h30v-2H12V-1h26v11h2zM12-3v-3h26v3H12zm12.2 15l2.6-10.5-2-.5-2.6 10.5 2 .5zm-5.7-9L15 6.5l3.5 3.5 1.4-1.4-2.1-2.1 2.1-2.1L18.5 3zm12.9 7l2.1-2.1L35 6.5 31.4 3 30 4.4l2.1 2.1L30 8.6l1.4 1.4z"/></svg><svg id="developer-m-actived" viewBox="8 -13 34 34" width="34" height="34" x="34" y="136"><style>.avst0{fill:none}.avst1{fill:#00a4ff}</style><path class="avst0" d="M-270.5-2229.5h-2v-2c0-4.4-3.6-8-8-8s-8 3.6-8 8v2h-2.1v4h.1v8h-.1v4h20v-16h.1zm-4 12h-12v-8h12v8zm0-12h-12 2v-2c0-2.2 1.8-4 4-4s4 1.8 4 4v2h2zm-32-22v30.5s.2 21.6 26 27.5c25.8-5.9 26-27.5 26-27.5v-30.5h-52zm48 30.4s-.1 4.6-2.8 9.7c-3.6 6.9-10.1 11.5-19.2 13.8-21.4-5.4-22-22.7-22-23.4v-26.5h44v26.4z"/><path class="avst1" d="M40 10V-8H10v24h30v-2H12V-1h26v11h2zM12-3v-3h26v3H12zm12.2 15l2.6-10.5-2-.5-2.6 10.5 2 .5zm-5.7-9L15 6.5l3.5 3.5 1.4-1.4-2.1-2.1 2.1-2.1L18.5 3zm12.9 7l2.1-2.1L35 6.5 31.4 3 30 4.4l2.1 2.1L30 8.6l1.4 1.4z"/></svg><svg id="domain-m" viewBox="-1 -1 34 34" width="34" height="34" x="68" y="136"><style>.awst0{fill:none}.awst1{fill-rule:evenodd;clip-rule:evenodd;fill:#7c848e}</style><path class="awst0" d="M-288.5-2205.5h-2v-2c0-4.4-3.6-8-8-8s-8 3.6-8 8v2h-2.1v4h.1v8h-.1v4h20v-16zm-4 12h-12v-8h12v8zm0-12h-12 2v-2c0-2.2 1.8-4 4-4s4 1.8 4 4v2h2zm-32-22v30.5s.2 21.6 26 27.5c25.8-5.9 26-27.5 26-27.5v-30.5h-52zm48 30.4s-.1 4.6-2.8 9.7c-3.6 6.9-10.1 11.5-19.2 13.8-21.4-5.4-22-22.7-22-23.4v-26.5h44v26.4z"/><g id="awXMLID_26_"><g id="awXMLID_135_"><path id="awXMLID_136_" class="awst1" d="M21 15c-1.1 0-2 .9-2 2v4h2v-6zm6 6v-4c0-1.1-.9-2-2-2h-4v2h1v4h2v-4h1v4h2zm4 1V4H1v24h30v-2H3V11h26v11h2zM3 9V6h26v3H3zm12 8h1v-2h-1c-1.1 0-2 .9-2 2v2c0 1.1.9 2 2 2h1v-2h-1v-2zm3 2v-2c0-1.1-.9-2-2-2v6c1.1 0 2-.9 2-2zm-8-2v-2c-1.1 0-2 .9-2 2v2c0 1.1.9 2 2 2v-4zm2 4v-2h-2v2h2zm-5 0v-2H5v2h2zm5-6h-2v2h2v-2z"/></g></g></svg><svg id="domain-m-actived" viewBox="-1 -1 34 34" width="34" height="34" x="102" y="136"><style>.axst0{fill:none}.axst1{fill-rule:evenodd;clip-rule:evenodd;fill:#00a4ff}</style><path class="axst0" d="M-288.5-2205.5h-2v-2c0-4.4-3.6-8-8-8s-8 3.6-8 8v2h-2.1v4h.1v8h-.1v4h20v-16zm-4 12h-12v-8h12v8zm0-12h-12 2v-2c0-2.2 1.8-4 4-4s4 1.8 4 4v2h2zm-32-22v30.5s.2 21.6 26 27.5c25.8-5.9 26-27.5 26-27.5v-30.5h-52zm48 30.4s-.1 4.6-2.8 9.7c-3.6 6.9-10.1 11.5-19.2 13.8-21.4-5.4-22-22.7-22-23.4v-26.5h44v26.4z"/><g id="axXMLID_26_"><g id="axXMLID_141_"><path id="axXMLID_142_" class="axst1" d="M27 21v-4c0-1.1-.9-2-2-2h-4v2h1v4h2v-4h1v4h2zm-6-6c-1.1 0-2 .9-2 2v4h2v-6zm10 7V4H1v24h30v-2H3V11h26v11h2zM3 9V6h26v3H3zm9 12v-2h-2v2h2zm-5 0v-2H5v2h2zm5-6h-2v2h2v-2zm6 4v-2c0-1.1-.9-2-2-2h-1c-1.1 0-2 .9-2 2v2c0 1.1.9 2 2 2h1c1.1 0 2-.9 2-2zm-3 0v-2h1v2h-1zm-5-2v-2c-1.1 0-2 .9-2 2v2c0 1.1.9 2 2 2v-4z"/></g></g></svg><svg version="undefined" width="34" height="34" viewBox="-1 -1 34 34" id="edu-#00a4ff" x="136" y="136"><path d="M17 1a4 4 0 0 0-3 1.37A4 4 0 0 0 11 1H1v24h10a2 2 0 0 1 1.48.69L14 27.42v-3A4 4 0 0 0 11 23H3V3h8a2 2 0 0 1 1.48.69l.5.57V17h2V4.3l.5-.57A2 2 0 0 1 17 3h8v12h2V1zm-6 6H4v2h7zm-7 8h5v-2H4z" fill="#00a4ff"/><g fill="#00a4ff"><path d="M22 17.28L27.56 20 22 22.81 16.51 20 22 17.28M22 15l-10 5 10 5 10-5-10-5z"/><path d="M29.02 20h2v5.96h-2zM26 25.06v1.76l-3.97 1.99L18 26.79v-1.77l-1.97-.98-.03.02v3.96l6.03 3.02L28 28.06v-4l-2 1z"/></g></svg><svg version="undefined" width="34" height="34" viewBox="-1 -1 34 34" id="edu-#7C848E" x="170"><path d="M17 1a4 4 0 0 0-3 1.37A4 4 0 0 0 11 1H1v24h10a2 2 0 0 1 1.48.69L14 27.42v-3A4 4 0 0 0 11 23H3V3h8a2 2 0 0 1 1.48.69l.5.57V17h2V4.3l.5-.57A2 2 0 0 1 17 3h8v12h2V1zm-6 6H4v2h7zm-7 8h5v-2H4z" fill="#7c848e"/><g fill="#7c848e"><path d="M22 17.28L27.56 20 22 22.81 16.51 20 22 17.28M22 15l-10 5 10 5 10-5-10-5z"/><path d="M29.02 20h2v5.96h-2zM26 25.06v1.76l-3.97 1.99L18 26.79v-1.77l-1.97-.98-.03.02v3.96l6.03 3.02L28 28.06v-4l-2 1z"/></g></svg><svg id="financial-service-m" width="34" height="34" viewBox="-1 -1 34 34" x="170" y="34"><style>.bast0{fill:#7c848e}</style><g id="baXMLID_11_"><g id="baXMLID_58_"><path class="bast0" d="M1 4v2h28v16h2V4z" id="baXMLID_13_"/></g><g id="baXMLID_56_"><path class="bast0" d="M3 10H1v18h30v-2H3z" id="baXMLID_12_"/></g></g><g id="baXMLID_1_"><g id="baXMLID_15_"><g id="baXMLID_18_"><g id="baXMLID_21_"><path id="baXMLID_7_" transform="rotate(45.001 13.9 12.705)" class="bast0" d="M10.522 11.706h6.753v2h-6.753z"/></g><g id="baXMLID_20_"><path id="baXMLID_6_" transform="rotate(45.001 18.274 12.705)" class="bast0" d="M17.274 9.329h2v6.753h-2z"/></g></g></g><g id="baXMLID_14_"><path id="baXMLID_5_" class="bast0" d="M11 15h10v2H11z"/></g><g id="baXMLID_23_"><path id="baXMLID_4_" class="bast0" d="M11 18h10v2H11z"/></g><g id="baXMLID_24_"><path id="baXMLID_3_" class="bast0" d="M15 15h2v8h-2z"/></g></g></svg><svg id="financial-service-m-actived" width="34" height="34" viewBox="-8 8 34 34" x="170" y="68"><style>.bbst0{fill:#00a4ff}</style><g id="bbXMLID_11_"><g id="bbXMLID_58_"><path class="bbst0" d="M-6 13v2h28v16h2V13z" id="bbXMLID_13_"/></g><g id="bbXMLID_56_"><path class="bbst0" d="M-4 19h-2v18h30v-2H-4z" id="bbXMLID_12_"/></g></g><g id="bbXMLID_1_"><g id="bbXMLID_15_"><g id="bbXMLID_18_"><g id="bbXMLID_21_"><path id="bbXMLID_7_" transform="rotate(-134.999 6.898 21.705)" class="bbst0" d="M3.522 20.705h6.753v2H3.522z"/></g><g id="bbXMLID_20_"><path id="bbXMLID_6_" transform="rotate(-134.999 11.274 21.706)" class="bbst0" d="M10.274 18.329h2v6.753h-2z"/></g></g></g><g id="bbXMLID_14_"><path id="bbXMLID_5_" class="bbst0" d="M4 24h10v2H4z"/></g><g id="bbXMLID_23_"><path id="bbXMLID_4_" class="bbst0" d="M4 27h10v2H4z"/></g><g id="bbXMLID_24_"><path id="bbXMLID_3_" class="bbst0" d="M8 24h2v8H8z"/></g></g></svg><svg id="game-m" viewBox="8 -13 34 34" width="34" height="34" x="170" y="102"><style>.bcst0{fill:none}.bcst1{fill:#7c848e}</style><path class="bcst0" d="M-279.5-2217.5h-2v-2c0-4.4-3.6-8-8-8s-8 3.6-8 8v2h-2.1v4h.1v8h-.1v4h20v-16h.1zm-4 12h-12v-8h12v8zm0-12h-12 2v-2c0-2.2 1.8-4 4-4s4 1.8 4 4v2h2zm-32-22v30.5s.2 21.6 26 27.5c25.8-5.9 26-27.5 26-27.5v-30.5h-52zm48 30.4s-.1 4.6-2.8 9.7c-3.6 6.9-10.1 11.5-19.2 13.8-21.4-5.4-22-22.7-22-23.4v-26.5h44v26.4z"/><path class="bcst1" d="M12-2h-2v18h30v-2H12V-2zm-2-6v2h28v16h2V-8H10zm9 7v4h-4v2h4v4h2V5h4V3h-4v-4h-2zm9 4v2h2V3h-2zm5 0v2h2V3h-2z"/></svg><svg id="game-m-actived" viewBox="8 -13 34 34" width="34" height="34" x="170" y="136"><style>.bdst0{fill:none}.bdst1{fill:#00a4ff}</style><path class="bdst0" d="M-279.5-2217.5h-2v-2c0-4.4-3.6-8-8-8s-8 3.6-8 8v2h-2.1v4h.1v8h-.1v4h20v-16h.1zm-4 12h-12v-8h12v8zm0-12h-12 2v-2c0-2.2 1.8-4 4-4s4 1.8 4 4v2h2zm-32-22v30.5s.2 21.6 26 27.5c25.8-5.9 26-27.5 26-27.5v-30.5h-52zm48 30.4s-.1 4.6-2.8 9.7c-3.6 6.9-10.1 11.5-19.2 13.8-21.4-5.4-22-22.7-22-23.4v-26.5h44v26.4z"/><path class="bdst1" d="M12-2h-2v18h30v-2H12V-2zm-2-6v2h28v16h2V-8H10zM28 3v2h2V3h-2zm5 0v2h2V3h-2zM19-1v4h-4v2h4v4h2V5h4V3h-4v-4h-2z"/></svg><svg id="iot-hub-m" width="34" height="34" viewBox="-1 -1 34 34"><style>.best0{fill:#7c848e}</style><g id="beXMLID_36_"><path id="beXMLID_39_" class="best0" d="M16 29C8.8 29 3 23.2 3 16S8.8 3 16 3c6.5 0 11.9 4.8 12.8 11h2C29.9 6.7 23.6 1 16 1 7.7 1 1 7.7 1 16s6.7 15 15 15c7.6 0 13.9-5.7 14.9-13h-2c-1 6.2-6.4 11-12.9 11z"/><path class="best0" d="M13.2 20.2L8.9 16l4.3-4.2 5.6 5.6 1.4-1.4-7-7.1L6.1 16l7.1 7.1 2.8-2.9-1.4-1.4z"/><path class="best0" d="M18.8 11.8l4.3 4.2-4.3 4.2-5.6-5.6-1.4 1.4 7 7.1 7.1-7.1-7.1-7.1-2.8 2.9 1.4 1.4z"/></g></svg><svg id="iot-hub-m-actived" width="34" height="34" viewBox="-1 -1 34 34" x="34" y="170"><style>.bfst0{fill:#00a4ff}</style><g id="bfXMLID_36_"><path id="bfXMLID_39_" class="bfst0" d="M16 29C8.8 29 3 23.2 3 16S8.8 3 16 3c6.5 0 11.9 4.8 12.8 11h2C29.9 6.7 23.6 1 16 1 7.7 1 1 7.7 1 16s6.7 15 15 15c7.6 0 13.9-5.7 14.9-13h-2c-1 6.2-6.4 11-12.9 11z"/><path class="bfst0" d="M13.2 20.2L8.9 16l4.3-4.2 5.6 5.6 1.4-1.4-7-7.1L6.1 16l7.1 7.1 2.8-2.9-1.4-1.4z"/><path class="bfst0" d="M18.8 11.8l4.3 4.2-4.3 4.2-5.6-5.6-1.4 1.4 7 7.1 7.1-7.1-7.1-7.1-2.8 2.9 1.4 1.4z"/></g></svg><svg version="undefined" width="34" height="34" viewBox="-1 -1 34 34" id="lab-#00a4ff" x="68" y="170"><defs><style>.bgcls-1{opacity:0}.bgcls-2{fill:#00a4ff}.bgcls-3{stroke:#979797}.bgcls-3,.bgcls-4{fill:#00a4ff}</style></defs><g class="bgcls-1"><path class="bgcls-2" d="M0 0h32v32H0z"/><path class="bgcls-3" d="M.5.5h31v31H.5z"/></g><path class="bgcls-4" d="M6 9h19V7H6v2zm0 6h19v-2H6v2zm0 6h4v-2H6v2zm22 8a1 1 0 0 1 0-2 .81.81 0 0 1 .1.02.986.986 0 0 1 .635.311c.02.022.03.049.048.072A.878.878 0 0 1 29 28a1 1 0 0 1-1 1zm-8.382-.833a1.959 1.959 0 0 1-.291.319c-.02.018-.041.034-.063.052a2.025 2.025 0 0 1-.287.2l-.1.056a1.924 1.924 0 0 1-.307.117c-.04.012-.077.027-.117.037A2.032 2.032 0 0 1 18 29a2 2 0 1 1 1.761-2.93l.047.086a1.964 1.964 0 0 1-.19 2.011zM28 25a2.994 2.994 0 0 0-2.706 1.724l-3.356-.335a3.966 3.966 0 0 0-1.038-2.136l2.038-3.26c.022 0 .043.007.066.007a2 2 0 1 0-1.83-2.8l-5.566.618a2 2 0 1 0 .222 1.982l5.227-.581-1.863 2.981A3.934 3.934 0 0 0 18 23a4 4 0 1 0 3.741 5.379l3.354.336A3 3 0 1 0 28 25z"/><path class="bgcls-4" d="M3 29V3h25v19a5.971 5.971 0 0 1 2 .349V1H1v30h11a7.921 7.921 0 0 1-.817-2z"/></svg><svg version="undefined" width="34" height="34" viewBox="-1 -1 34 34" id="lab-#7C848E" x="102" y="170"><defs><style>.bhcls-1{opacity:0}.bhcls-2{fill:#7c848e}.bhcls-3{stroke:#979797}.bhcls-3,.bhcls-4{fill:#7c848e}</style></defs><g class="bhcls-1"><path class="bhcls-2" d="M0 0h32v32H0z"/><path class="bhcls-3" d="M.5.5h31v31H.5z"/></g><path class="bhcls-4" d="M6 9h19V7H6v2zm0 6h19v-2H6v2zm0 6h4v-2H6v2zm22 8a1 1 0 0 1 0-2 .81.81 0 0 1 .1.02.986.986 0 0 1 .635.311c.02.022.03.049.048.072A.878.878 0 0 1 29 28a1 1 0 0 1-1 1zm-8.382-.833a1.959 1.959 0 0 1-.291.319c-.02.018-.041.034-.063.052a2.025 2.025 0 0 1-.287.2l-.1.056a1.924 1.924 0 0 1-.307.117c-.04.012-.077.027-.117.037A2.032 2.032 0 0 1 18 29a2 2 0 1 1 1.761-2.93l.047.086a1.964 1.964 0 0 1-.19 2.011zM28 25a2.994 2.994 0 0 0-2.706 1.724l-3.356-.335a3.966 3.966 0 0 0-1.038-2.136l2.038-3.26c.022 0 .043.007.066.007a2 2 0 1 0-1.83-2.8l-5.566.618a2 2 0 1 0 .222 1.982l5.227-.581-1.863 2.981A3.934 3.934 0 0 0 18 23a4 4 0 1 0 3.741 5.379l3.354.336A3 3 0 1 0 28 25z"/><path class="bhcls-4" d="M3 29V3h25v19a5.971 5.971 0 0 1 2 .349V1H1v30h11a7.921 7.921 0 0 1-.817-2z"/></svg><svg id="manage-m" viewBox="8 -13 34 34" width="34" height="34" x="136" y="170"><style>.bist0{fill:#7c848e}</style><path class="bist0" d="M25-11c-8.3 0-15 6.7-15 15 0 7.7 5.7 14 13 15v-2c-6.2-1-11-6.4-11-13 0-7.2 5.8-13 13-13S38-3.2 38 4c0 6.5-4.8 11.9-11 12.8v2C34.3 18 40 11.7 40 4c0-8.3-6.7-15-15-15zM17 4.5c0 .8.7 1.5 1.5 1.5S20 5.3 20 4.5 19.3 3 18.5 3 17 3.7 17 4.5zM25.5 3c-.8 0-1.5.7-1.5 1.5S24.7 6 25.5 6 27 5.3 27 4.5 26.3 3 25.5 3zM34 4.5c0-.8-.7-1.5-1.5-1.5S31 3.7 31 4.5 31.7 6 32.5 6 34 5.3 34 4.5z"/></svg><svg id="manage-m-actived" viewBox="8 -13 34 34" width="34" height="34" x="170" y="170"><style>.bjst0{fill:#00a4ff}</style><path class="bjst0" d="M25-11c-8.3 0-15 6.7-15 15 0 7.7 5.7 14 13 15v-2c-6.2-1-11-6.4-11-13 0-7.2 5.8-13 13-13S38-3.2 38 4c0 6.5-4.8 11.9-11 12.8v2C34.3 18 40 11.7 40 4c0-8.3-6.7-15-15-15zM17 4.5c0 .8.7 1.5 1.5 1.5S20 5.3 20 4.5 19.3 3 18.5 3 17 3.7 17 4.5zM25.5 3c-.8 0-1.5.7-1.5 1.5S24.7 6 25.5 6 27 5.3 27 4.5 26.3 3 25.5 3zM34 4.5c0-.8-.7-1.5-1.5-1.5S31 3.7 31 4.5 31.7 6 32.5 6 34 5.3 34 4.5z"/></svg><svg id="middleware-m" width="34" height="34" viewBox="266 51 34 34" x="204"><style>.st0{opacity:.2;fill:#fff}.st1{enable-background:new}.st2{fill:#0085f6}.st3{fill:url(#SVGID_1_)}.st4{fill:url(#SVGID_2_)}.st5{fill:url(#SVGID_3_)}.st6{fill:#00a4ff}.bkst7{fill:#7c848e}.st8{fill-rule:evenodd;clip-rule:evenodd;fill:#00a4ff}.st9{fill:#2274e5}.st10{fill:url(#SVGID_4_)}</style><path class="bkst7" d="M269 58v15h2V59l3-3h23v-2h-24l-4 4z"/><path class="bkst7" d="M297 59h-2v18l-3 3h-18l-3-3v-4h-2v5l4 4h20l4-4z"/><path class="bkst7" d="M290 67v-6h-14v6h4l-1 1v2h9v4h2v-6h-4l1-1v-2h-9v-2h10v4h2zm-8 0h3l-1 1h-3l1-1z"/><path class="bkst7" d="M276 68v6h8.5l1.5 2h2l-3-4h-7v-4z"/></svg><svg id="middleware-m-actived" width="34" height="34" viewBox="266 51 34 34" x="204" y="34"><style>.st0{opacity:.2;fill:#fff}.st1{enable-background:new}.st2{fill:#0085f6}.st3{fill:url(#SVGID_1_)}.st4{fill:url(#SVGID_2_)}.st5{fill:url(#SVGID_3_)}.blst7,.st6,.st8{fill:#00a4ff}.st8{fill-rule:evenodd;clip-rule:evenodd}.st9{fill:#2274e5}.st10{fill:url(#SVGID_4_)}</style><path class="blst7" d="M269 58v15h2V59l3-3h23v-2h-24l-4 4z"/><path class="blst7" d="M297 59h-2v18l-3 3h-18l-3-3v-4h-2v5l4 4h20l4-4z"/><path class="blst7" d="M290 67v-6h-14v6h4l-1 1v2h9v4h2v-6h-4l1-1v-2h-9v-2h10v4h2zm-8 0h3l-1 1h-3l1-1z"/><path class="blst7" d="M276 68v6h8.5l1.5 2h2l-3-4h-7v-4z"/></svg><svg id="mobile-m" viewBox="-1 -1 34 34" width="34" height="34" x="204" y="68"><style>.bmst0{fill:none}.bmst1{fill-rule:evenodd;clip-rule:evenodd;fill:#7c848e}</style><path class="bmst0" d="M-288.5-2205.5h-2v-2c0-4.4-3.6-8-8-8s-8 3.6-8 8v2h-2.1v4h.1v8h-.1v4h20v-16zm-4 12h-12v-8h12v8zm0-12h-12 2v-2c0-2.2 1.8-4 4-4s4 1.8 4 4v2h2zm-32-22v30.5s.2 21.6 26 27.5c25.8-5.9 26-27.5 26-27.5v-30.5h-52zm48 30.4s-.1 4.6-2.8 9.7c-3.6 6.9-10.1 11.5-19.2 13.8-21.4-5.4-22-22.7-22-23.4v-26.5h44v26.4z"/><g id="bmXMLID_9_"><g id="bmXMLID_61_"><path id="bmXMLID_62_" class="bmst1" d="M14 25h4v-2h-4v2zm13 0V1H5v30h22v-2H7V3h18v22h2zm-5.8-14.7L22.7 9c-1.6-1.8-4-3-6.7-3s-5 1.2-6.7 3l1.5 1.3C12.1 8.9 13.9 8 16 8s3.9.9 5.2 2.3zM15 14v2h2v-2h-2zm4.7-2.3c-.9-1-2.2-1.7-3.7-1.7s-2.8.7-3.7 1.7l1.5 1.3c.5-.6 1.3-1 2.2-1 .9 0 1.7.4 2.2 1l1.5-1.3z"/></g></g></svg><svg id="mobile-m-actived" viewBox="-1 -1 34 34" width="34" height="34" x="204" y="102"><style>.bnst0{fill:none}.bnst1{fill-rule:evenodd;clip-rule:evenodd;fill:#00a4ff}</style><path class="bnst0" d="M-288.5-2205.5h-2v-2c0-4.4-3.6-8-8-8s-8 3.6-8 8v2h-2.1v4h.1v8h-.1v4h20v-16zm-4 12h-12v-8h12v8zm0-12h-12 2v-2c0-2.2 1.8-4 4-4s4 1.8 4 4v2h2zm-32-22v30.5s.2 21.6 26 27.5c25.8-5.9 26-27.5 26-27.5v-30.5h-52zm48 30.4s-.1 4.6-2.8 9.7c-3.6 6.9-10.1 11.5-19.2 13.8-21.4-5.4-22-22.7-22-23.4v-26.5h44v26.4z"/><g id="bnXMLID_9_"><g id="bnXMLID_62_"><path id="bnXMLID_63_" class="bnst1" d="M14 25h4v-2h-4v2zm13 0V1H5v30h22v-2H7V3h18v22h2zm-5.8-14.7L22.7 9c-1.6-1.8-4-3-6.7-3s-5 1.2-6.7 3l1.5 1.3C12.1 8.9 13.9 8 16 8s3.9.9 5.2 2.3zM15 14v2h2v-2h-2zm4.7-2.3c-.9-1-2.2-1.7-3.7-1.7s-2.8.7-3.7 1.7l1.5 1.3c.5-.6 1.3-1 2.2-1 .9 0 1.7.4 2.2 1l1.5-1.3z"/></g></g></svg><svg id="monitor-m" viewBox="-1 -1 34 34" width="34" height="34" x="204" y="136"><style>.bost0{fill:none}.bost1{fill:#7c848e}</style><path class="bost0" d="M-288.5-2205.5h-2v-2c0-4.4-3.6-8-8-8s-8 3.6-8 8v2h-2.1v4h.1v8h-.1v4h20v-16zm-4 12h-12v-8h12v8zm0-12h-12 2v-2c0-2.2 1.8-4 4-4s4 1.8 4 4v2h2zm-32-22v30.5s.2 21.6 26 27.5c25.8-5.9 26-27.5 26-27.5v-30.5h-52zm48 30.4s-.1 4.6-2.8 9.7c-3.6 6.9-10.1 11.5-19.2 13.8-21.4-5.4-22-22.7-22-23.4v-26.5h44v26.4z"/><g id="boXMLID_10_"><g id="boXMLID_56_"><path id="boXMLID_58_" class="bost1" d="M3 16c0-4.7 2.5-8.9 6.3-11.1l-1-1.7C3.9 5.8 1 10.5 1 16c0 5.5 2.9 10.2 7.3 12.8l1-1.7C5.5 24.9 3 20.7 3 16zM16 1h-.4.8-.4zm7.7 2.2l-1 1.7C26.5 7.1 29 11.3 29 16c0 4.7-2.5 8.9-6.3 11.1l1 1.7C28.1 26.2 31 21.5 31 16c0-5.5-2.9-10.2-7.3-12.8zm-4 4.6l-1 1.7L16 14c-1.1 0-2 .9-2 2s.9 2 2 2 2-.9 2-2c0-.4-.1-.7-.3-1l2.7-4.5C22 11.9 23 13.8 23 16c0 3.9-3.1 7-7 7s-7-3.1-7-7c0-2.5 1.4-4.8 3.4-6l-1-1.7C8.7 9.9 7 12.7 7 16c0 5 4 9 9 9s9-4 9-9c0-3.6-2.2-6.8-5.3-8.2z"/></g></g></svg><svg id="monitor-m-actived" viewBox="-1 -1 34 34" width="34" height="34" x="204" y="170"><style>.bpst0{fill:none}.bpst1{fill:#00a4ff}</style><path class="bpst0" d="M-288.5-2205.5h-2v-2c0-4.4-3.6-8-8-8s-8 3.6-8 8v2h-2.1v4h.1v8h-.1v4h20v-16zm-4 12h-12v-8h12v8zm0-12h-12 2v-2c0-2.2 1.8-4 4-4s4 1.8 4 4v2h2zm-32-22v30.5s.2 21.6 26 27.5c25.8-5.9 26-27.5 26-27.5v-30.5h-52zm48 30.4s-.1 4.6-2.8 9.7c-3.6 6.9-10.1 11.5-19.2 13.8-21.4-5.4-22-22.7-22-23.4v-26.5h44v26.4z"/><g id="bpXMLID_10_"><g id="bpXMLID_58_"><path id="bpXMLID_59_" class="bpst1" d="M16 1h-.4.8-.4zM3 16c0-4.7 2.5-8.9 6.3-11.1l-1-1.7C3.9 5.8 1 10.5 1 16c0 5.5 2.9 10.2 7.3 12.8l1-1.7C5.5 24.9 3 20.7 3 16zM23.7 3.2l-1 1.7C26.5 7.1 29 11.3 29 16c0 4.7-2.5 8.9-6.3 11.1l1 1.7C28.1 26.2 31 21.5 31 16c0-5.5-2.9-10.2-7.3-12.8zm-4 4.6l-1 1.7L16 14c-1.1 0-2 .9-2 2s.9 2 2 2 2-.9 2-2c0-.4-.1-.7-.3-1l2.7-4.5C22 11.9 23 13.8 23 16c0 3.9-3.1 7-7 7s-7-3.1-7-7c0-2.5 1.4-4.8 3.4-6l-1-1.7C8.7 9.9 7 12.7 7 16c0 5 4 9 9 9s9-4 9-9c0-3.6-2.2-6.8-5.3-8.2z"/></g></g></svg><svg id="network-m" viewBox="-1 -1 34 34" width="34" height="34" y="204"><style>.bqst0{fill-rule:evenodd;clip-rule:evenodd;fill:#7c848e}</style><g id="bqXMLID_9_"><g id="bqXMLID_71_"><path id="bqXMLID_72_" class="bqst0" d="M16 1C7.7 1 1 7.7 1 16s6.7 15 15 15 15-6.7 15-15S24.3 1 16 1zm12.6 11.7c-1.7-1-4.1-1.8-7-2.3-.5-2.9-1.3-5.3-2.3-7 4.5 1.2 8.1 4.8 9.3 9.3zM3.4 19.3c1.3.8 3 1.4 4.9 1.9-.1-.6-.2-1.3-.2-2C5 18.5 3 17.3 3 16c0-1.3 2-2.5 5.1-3.2.1-.7.1-1.3.2-2-2 .5-3.7 1.1-4.9 1.9 1.2-4.6 4.8-8.1 9.3-9.3C11.1 6.1 10 10.7 10 16s1.1 9.9 2.7 12.6c-4.5-1.2-8.1-4.8-9.3-9.3zm15.9 9.3c1-1.7 1.8-4.1 2.3-7 2.9-.5 5.3-1.3 7-2.3-1.2 4.5-4.8 8.1-9.3 9.3zm9.6-12.1c0 .1-.1.2-.1.3v.1l-.3.3-.1.1c-.1.1-.2.1-.3.2-.1 0-.1.1-.2.1-.1.1-.2.2-.4.2-.1.1-.2.1-.3.2-.1.1-.2.1-.3.2-.1.1-.2.1-.3.2-.1 0-.2.1-.3.1-.3.1-.6.2-1 .3-.2.1-.4.1-.6.2h-.2c-.6.2-1.3.3-2 .5-.3 0-.5.1-.8.1-.6.1-1.3.2-2 .3-.5.1-1.1.1-1.7.1h-4c.1.7.2 1.4.3 2h1.5c1.2 0 2.4-.1 3.6-.2-.7 4.3-2 7.2-3.6 7.2-2.2 0-4-5.8-4-13s1.8-13 4-13c1.6 0 2.9 2.9 3.6 7.2-1-.1-2.2-.2-3.4-.2h-1.5c-.1.6-.2 1.3-.3 2h4c.6 0 1.1.1 1.7.1.7.1 1.4.2 2 .3.3 0 .5.1.8.1.7.1 1.4.3 2 .5h.2c.6.2 1.1.3 1.5.5.1 0 .2.1.3.1.1 0 .2.1.3.2.1.1.2.1.3.2.1.1.2.1.3.2.1.1.3.2.4.2.1 0 .1.1.2.1.1.1.2.1.3.2l.1.1.3.3v.1c.1.1.1.2.1.3v.1c0 .1.1.2.1.4 0 .1 0 .2-.1.4-.1 0-.1 0-.1.1zM20 14.1v3.8c.7 0 1.4-.1 2-.2v-3.4c-.7-.1-1.3-.1-2-.2z"/></g></g></svg><svg id="network-m-actived" viewBox="-1 -1 34 34" width="34" height="34" x="34" y="204"><style>.brst0{fill-rule:evenodd;clip-rule:evenodd;fill:#00a4ff}</style><g id="brXMLID_9_"><g id="brXMLID_72_"><path id="brXMLID_73_" class="brst0" d="M20 14.1v3.8c.7 0 1.4-.1 2-.2v-3.4c-.7-.1-1.3-.1-2-.2zM16 1C7.7 1 1 7.7 1 16s6.7 15 15 15 15-6.7 15-15S24.3 1 16 1zm12.6 11.7c-1.7-1-4.1-1.8-7-2.3-.5-2.9-1.3-5.3-2.3-7 4.5 1.2 8.1 4.8 9.3 9.3zM3.4 19.3c1.3.8 3 1.4 4.9 1.9-.1-.6-.2-1.3-.2-2C5 18.5 3 17.3 3 16c0-1.3 2-2.5 5.1-3.2.1-.7.1-1.3.2-2-2 .5-3.7 1.1-4.9 1.9 1.2-4.6 4.8-8.1 9.3-9.3C11.1 6.1 10 10.7 10 16s1.1 9.9 2.7 12.6c-4.5-1.2-8.1-4.8-9.3-9.3zm15.9 9.3c1-1.7 1.8-4.1 2.3-7 2.9-.5 5.3-1.3 7-2.3-1.2 4.5-4.8 8.1-9.3 9.3zm9.6-12.1c0 .1-.1.2-.1.3v.1l-.3.3-.1.1c-.1.1-.2.1-.3.2-.1 0-.1.1-.2.1-.1.1-.2.2-.4.2-.1.1-.2.1-.3.2-.1.1-.2.1-.3.2-.1.1-.2.1-.3.2-.1 0-.2.1-.3.1-.3.1-.6.2-1 .3-.2.1-.4.1-.6.2h-.2c-.6.2-1.3.3-2 .5-.3 0-.5.1-.8.1-.6.1-1.3.2-2 .3-.5.1-1.1.1-1.7.1h-4c.1.7.2 1.4.3 2h1.5c1.2 0 2.4-.1 3.6-.2-.7 4.3-2 7.2-3.6 7.2-2.2 0-4-5.8-4-13s1.8-13 4-13c1.6 0 2.9 2.9 3.6 7.2-1-.1-2.2-.2-3.4-.2h-1.5c-.1.6-.2 1.3-.3 2h4c.6 0 1.1.1 1.7.1.7.1 1.4.2 2 .3.3 0 .5.1.8.1.7.1 1.4.3 2 .5h.2c.6.2 1.1.3 1.5.5.1 0 .2.1.3.1.1 0 .2.1.3.2.1.1.2.1.3.2.1.1.2.1.3.2.1.1.3.2.4.2.1 0 .1.1.2.1.1.1.2.1.3.2l.1.1.3.3v.1c.1.1.1.2.1.3v.1c0 .1.1.2.1.4 0 .1 0 .2-.1.4-.1 0-.1 0-.1.1z"/></g></g></svg><svg id="pic-service-m" viewBox="8 -13 34 34" width="34" height="34" x="68" y="204"><style>.bsst0{fill:none}.bsst1{fill:#7c848e}</style><path class="bsst0" d="M-270.5-2229.5h-2v-2c0-4.4-3.6-8-8-8s-8 3.6-8 8v2h-2.1v4h.1v8h-.1v4h20v-16h.1zm-4 12h-12v-8h12v8zm0-12h-12 2v-2c0-2.2 1.8-4 4-4s4 1.8 4 4v2h2zm-32-22v30.5s.2 21.6 26 27.5c25.8-5.9 26-27.5 26-27.5v-30.5h-52zm48 30.4s-.1 4.6-2.8 9.7c-3.6 6.9-10.1 11.5-19.2 13.8-21.4-5.4-22-22.7-22-23.4v-26.5h44v26.4z"/><path class="bsst1" d="M38 13c-.7 0-1.4.4-1.7 1H13V-1h-2v17h25.3c.3.6 1 1 1.7 1 1.1 0 2-.9 2-2s-.9-2-2-2zM13.7-6H37V9h2V-8H13.7c-.3-.6-1-1-1.7-1-1.1 0-2 .9-2 2s.9 2 2 2c.7 0 1.4-.4 1.7-1zM32-3v2h2v-2h-2zM26.9 7.7L23-1l-7.9 12h2.6L23 3l2 5 1 2 .8 1.1L28.5 9 30 7l2.1 4h2.6L30 4l-3.1 3.7z"/></svg><svg id="pic-service-m-actived" viewBox="8 -13 34 34" width="34" height="34" x="102" y="204"><style>.btst0{fill:none}.btst1{fill:#00a4ff}</style><path class="btst0" d="M-270.5-2229.5h-2v-2c0-4.4-3.6-8-8-8s-8 3.6-8 8v2h-2.1v4h.1v8h-.1v4h20v-16h.1zm-4 12h-12v-8h12v8zm0-12h-12 2v-2c0-2.2 1.8-4 4-4s4 1.8 4 4v2h2zm-32-22v30.5s.2 21.6 26 27.5c25.8-5.9 26-27.5 26-27.5v-30.5h-52zm48 30.4s-.1 4.6-2.8 9.7c-3.6 6.9-10.1 11.5-19.2 13.8-21.4-5.4-22-22.7-22-23.4v-26.5h44v26.4z"/><path class="btst1" d="M13.7-6H37V9h2V-8H13.7c-.3-.6-1-1-1.7-1-1.1 0-2 .9-2 2s.9 2 2 2c.7 0 1.4-.4 1.7-1zM38 13c-.7 0-1.4.4-1.7 1H13V-1h-2v17h25.3c.3.6 1 1 1.7 1 1.1 0 2-.9 2-2s-.9-2-2-2zM26.9 7.7L23-1l-7.9 12h2.6L23 3l2 5 1 2 .8 1.1L28.5 9 30 7l2.1 4h2.6L30 4l-3.1 3.7zM32-3v2h2v-2h-2z"/></svg><svg data-name="图层 1" width="34" height="34" viewBox="-1 -1 34 34" id="qidian-m" x="136" y="204"><title>画板 1</title><g data-name="ic enterprise-application normal 32" fill="#7c848e"><path d="M26.4 17.5L32 21 16 31 0 21l5.6-3.5 1.887 1.179L3.774 21 16 28.642 28.226 21l-3.713-2.321z"/><path d="M28.226 11L16 3.358 3.774 11 16 18.642zM16 1l16 10-16 10L0 11z"/></g></svg><svg width="34" height="34" viewBox="-1 -1 34 34" id="qidian-m-actived" x="170" y="204"><title>ic_enterprise application_hover_32</title><g fill="#00A4FF"><path d="M26.4 17.5L32 21 16 31 0 21l5.6-3.5 1.887 1.18L3.774 21 16 28.642 28.226 21l-3.713-2.32L26.4 17.5z"/><path d="M28.226 11L16 3.358 3.774 11 16 18.642 28.226 11zM16 1l16 10-16 10L0 11 16 1z"/></g></svg><svg width="34" height="34" viewBox="266 944 34 34" id="quanta-m-#00a4ff" x="204" y="204"><style>.st0,.st1{opacity:.2;fill:#00a4ff}.st2{enable-background:new}.st3,.st4,.st5,.st6,.st7{fill:#00a4ff}.st8{fill-rule:evenodd;clip-rule:evenodd}.st10,.st11,.st8,.st9{fill:#00a4ff}.st12,.st13{fill-rule:evenodd;clip-rule:evenodd}.st12,.st13,.st14,.st15,.st16,.st17,.st18,.st19,.st20,.st21,.st22,.st23,.st24,.st25,.st26,.st27,.st28,.st29,.st30,.st31,.st32,.st33,.st34,.st35,.st36,.st37,.st38,.st39,.st40,.st41{fill:#00a4ff}.st42,.st43,.st44{fill-rule:evenodd;clip-rule:evenodd;fill:#00a4ff}.st45,.st46,.st47,.st48{fill:#00a4ff}.st49,.st50,.st51{fill-rule:evenodd;clip-rule:evenodd;fill:#00a4ff}.st52,.st53,.st54,.st55{fill:#00a4ff}.st56{fill-rule:evenodd;clip-rule:evenodd}.st56,.st57{fill:#00a4ff}.st58,.st59{fill-rule:evenodd;clip-rule:evenodd}.st58,.st59,.st60,.st61,.st62,.st63{fill:#00a4ff}.st64{fill-rule:evenodd;clip-rule:evenodd}.st64,.st65{fill:#00a4ff}.st66{fill-rule:evenodd;clip-rule:evenodd}.st66,.st67{fill:#00a4ff}.bwst68{fill-rule:evenodd;clip-rule:evenodd}.bwst68,.bwst69,.st70,.st71{fill:#00a4ff}.st70,.st71{fill-rule:evenodd;clip-rule:evenodd}</style><circle class="bwst68" cx="275.5" cy="948.5" r="2.5"/><circle class="bwst68" cx="290.5" cy="973.5" r="2.5"/><path class="bwst69" d="M280 949h9.8l6.9 12-6.7 12c.6.2 1.5-.5 2 0l7-12-8-14h-11v2zm6 24h-9.8l-6.9-12 6.7-12c-.6-.2-1.5.5-2 0l-7 12 8 14h11v-2z"/><path class="bwst69" d="M279.1 955.7c1.3 0 3.6.8 6 3.2 1.4 1.4 2.5 3.1 3 4.7.3 1.1.3 2-.1 2.4-.3.3-.7.3-1.1.3-1.3 0-3.6-.8-6-3.2-1.4-1.4-2.5-3.1-3-4.7-.3-1.1-.3-2 .1-2.4.3-.2.8-.3 1.1-.3m0-2c-1 0-1.9.3-2.5.9-2 2-.7 6.4 2.8 9.9 2.4 2.4 5.2 3.7 7.4 3.7 1 0 1.9-.3 2.5-.9 2-2 .7-6.4-2.8-9.9-2.4-2.3-5.2-3.7-7.4-3.7z"/><path class="bwst69" d="M286.9 955.7c.3 0 .8.1 1.1.3.4.4.4 1.3.1 2.4-.4 1.5-1.5 3.2-3 4.7-2.3 2.3-4.7 3.2-6 3.2-.3 0-.8-.1-1.1-.3-.4-.4-.4-1.3-.1-2.4.4-1.5 1.5-3.2 3-4.7 2.3-2.4 4.7-3.2 6-3.2m0-2c-2.2 0-5 1.4-7.4 3.7-3.5 3.5-4.8 7.9-2.8 9.9.6.6 1.5.9 2.5.9 2.2 0 5-1.4 7.4-3.7 3.5-3.5 4.8-7.9 2.8-9.9-.7-.6-1.5-.9-2.5-.9z"/><circle class="bwst69" cx="283" cy="961" r="2"/></svg><svg width="34" height="34" viewBox="266 944 34 34" id="quanta-m-#7C848E" x="238"><style>.st0,.st1{opacity:.2;fill:#7c848e}.st2{enable-background:new}.st3,.st4,.st5,.st6,.st7{fill:#7c848e}.st8{fill-rule:evenodd;clip-rule:evenodd}.st10,.st11,.st8,.st9{fill:#7c848e}.st12,.st13{fill-rule:evenodd;clip-rule:evenodd}.st12,.st13,.st14,.st15,.st16,.st17,.st18,.st19,.st20,.st21,.st22,.st23,.st24,.st25,.st26,.st27,.st28,.st29,.st30,.st31,.st32,.st33,.st34,.st35,.st36,.st37,.st38,.st39,.st40,.st41{fill:#7c848e}.st42,.st43,.st44{fill-rule:evenodd;clip-rule:evenodd;fill:#7c848e}.st45,.st46,.st47,.st48{fill:#7c848e}.st49,.st50,.st51{fill-rule:evenodd;clip-rule:evenodd;fill:#7c848e}.st52,.st53,.st54,.st55{fill:#7c848e}.st56{fill-rule:evenodd;clip-rule:evenodd}.st56,.st57{fill:#7c848e}.st58,.st59{fill-rule:evenodd;clip-rule:evenodd}.st58,.st59,.st60,.st61,.st62,.st63{fill:#7c848e}.st64{fill-rule:evenodd;clip-rule:evenodd}.st64,.st65{fill:#7c848e}.st66{fill-rule:evenodd;clip-rule:evenodd}.st66,.st67{fill:#7c848e}.bxst68{fill-rule:evenodd;clip-rule:evenodd}.bxst68,.bxst69,.st70,.st71{fill:#7c848e}.st70,.st71{fill-rule:evenodd;clip-rule:evenodd}</style><circle class="bxst68" cx="275.5" cy="948.5" r="2.5"/><circle class="bxst68" cx="290.5" cy="973.5" r="2.5"/><path class="bxst69" d="M280 949h9.8l6.9 12-6.7 12c.6.2 1.5-.5 2 0l7-12-8-14h-11v2zm6 24h-9.8l-6.9-12 6.7-12c-.6-.2-1.5.5-2 0l-7 12 8 14h11v-2z"/><path class="bxst69" d="M279.1 955.7c1.3 0 3.6.8 6 3.2 1.4 1.4 2.5 3.1 3 4.7.3 1.1.3 2-.1 2.4-.3.3-.7.3-1.1.3-1.3 0-3.6-.8-6-3.2-1.4-1.4-2.5-3.1-3-4.7-.3-1.1-.3-2 .1-2.4.3-.2.8-.3 1.1-.3m0-2c-1 0-1.9.3-2.5.9-2 2-.7 6.4 2.8 9.9 2.4 2.4 5.2 3.7 7.4 3.7 1 0 1.9-.3 2.5-.9 2-2 .7-6.4-2.8-9.9-2.4-2.3-5.2-3.7-7.4-3.7z"/><path class="bxst69" d="M286.9 955.7c.3 0 .8.1 1.1.3.4.4.4 1.3.1 2.4-.4 1.5-1.5 3.2-3 4.7-2.3 2.3-4.7 3.2-6 3.2-.3 0-.8-.1-1.1-.3-.4-.4-.4-1.3-.1-2.4.4-1.5 1.5-3.2 3-4.7 2.3-2.4 4.7-3.2 6-3.2m0-2c-2.2 0-5 1.4-7.4 3.7-3.5 3.5-4.8 7.9-2.8 9.9.6.6 1.5.9 2.5.9 2.2 0 5-1.4 7.4-3.7 3.5-3.5 4.8-7.9 2.8-9.9-.7-.6-1.5-.9-2.5-.9z"/><circle class="bxst69" cx="283" cy="961" r="2"/></svg><svg version="1" width="34" height="34" viewBox="-8 8 34 34" id="quyu-m" x="238" y="34"><path fill="#757A80" d="M17.1 28c0 1.1-.9 2-2 2-.2 0-.4 0-.6-.1l-3.4 2v.1c0 1.1-.9 2-2 2s-2-.9-2-2v-.1l-3.4-2c-.2.1-.4.1-.6.1-1.1 0-2-.9-2-2 0-.7.4-1.4 1-1.7v-3.6c-.6-.3-1-1-1-1.7 0-1.1.9-2 2-2 .6 0 1.1.2 1.4.6l2.6-1.5V18c0-1.1.9-2 2-2s2 .9 2 2v.1l2.6 1.5c.4-.4.9-.6 1.4-.6 1.1 0 2 .9 2 2 0 .7-.4 1.4-1 1.7v3.5c.6.4 1 1.1 1 1.8zm-13-4.8v3.1c.2.1.4.3.5.5l2.6-1.7-3.1-1.9zm4-3.5s-.1 0-.1-.1l-3 1.8 3.1 1.8v-3.5zm0 7.2l-2.8 1.8L8 30.3s.1 0 .1-.1v-3.3zm6-.6V23L11 25l2.7 1.6c.1-.1.2-.2.4-.3zm-4 4s.1 0 .1.1l2.9-1.8-3-1.8v3.5zm.1-10.6s-.1 0-.1.1v3.5l2.9-1.9-2.8-1.7zM21.9 23c-1-6.2-6.3-11-12.8-11-7.2 0-13 5.8-13 13s5.8 13 13 13c6.5 0 11.9-4.8 12.8-11h2c-1 7.3-7.2 13-14.9 13C.7 40-6 33.3-6 25S.7 10 9 10c7.6 0 13.9 5.7 14.9 13h-2z"/></svg><svg version="1" width="34" height="34" viewBox="-8 8 34 34" id="quyu-m-#00a4ff" x="238" y="68"><path fill="#00a4ff" d="M17.1 28c0 1.1-.9 2-2 2-.2 0-.4 0-.6-.1l-3.4 2v.1c0 1.1-.9 2-2 2s-2-.9-2-2v-.1l-3.4-2c-.2.1-.4.1-.6.1-1.1 0-2-.9-2-2 0-.7.4-1.4 1-1.7v-3.6c-.6-.3-1-1-1-1.7 0-1.1.9-2 2-2 .6 0 1.1.2 1.4.6l2.6-1.5V18c0-1.1.9-2 2-2s2 .9 2 2v.1l2.6 1.5c.4-.4.9-.6 1.4-.6 1.1 0 2 .9 2 2 0 .7-.4 1.4-1 1.7v3.5c.6.4 1 1.1 1 1.8zm-13-4.8v3.1c.2.1.4.3.5.5l2.6-1.7-3.1-1.9zm4-3.5s-.1 0-.1-.1l-3 1.8 3.1 1.8v-3.5zm0 7.2l-2.8 1.8L8 30.3s.1 0 .1-.1v-3.3zm6-.6V23L11 25l2.7 1.6c.1-.1.2-.2.4-.3zm-4 4s.1 0 .1.1l2.9-1.8-3-1.8v3.5zm.1-10.6s-.1 0-.1.1v3.5l2.9-1.9-2.8-1.7zM21.9 23c-1-6.2-6.3-11-12.8-11-7.2 0-13 5.8-13 13s5.8 13 13 13c6.5 0 11.9-4.8 12.8-11h2c-1 7.3-7.2 13-14.9 13C.7 40-6 33.3-6 25S.7 10 9 10c7.6 0 13.9 5.7 14.9 13h-2z"/></svg><svg id="security-m" viewBox="-1 -1 34 34" width="34" height="34" x="238" y="102"><style>.cast0{fill:none}.cast1{fill:#7c848e}</style><path class="cast0" d="M-288.5-2205.5h-2v-2c0-4.4-3.6-8-8-8s-8 3.6-8 8v2h-2.1v4h.1v8h-.1v4h20v-16zm-4 12h-12v-8h12v8zm0-12h-12 2v-2c0-2.2 1.8-4 4-4s4 1.8 4 4v2h2zm-32-22v30.5s.2 21.6 26 27.5c25.8-5.9 26-27.5 26-27.5v-30.5h-52zm48 30.4s-.1 4.6-2.8 9.7c-3.6 6.9-10.1 11.5-19.2 13.8-21.4-5.4-22-22.7-22-23.4v-26.5h44v26.4z"/><g id="caXMLID_11_"><g id="caXMLID_78_"><path id="caXMLID_79_" class="cast1" d="M21.4 12.6h-1.1v-1.1h-2.2v1.1h-4.3v-1.1h-2.2v1.1h-1.1v8.5h10.8v-8.5zm-2.1 6.5h-6.5v-4.3h6.5v4.3zM16 9.4c1.2 0 2.2 1 2.2 2.2h2.2c0-2.4-1.9-4.3-4.3-4.3s-4.3 1.9-4.3 4.3H14c-.2-1.3.8-2.2 2-2.2zM2 .8v16.4S2.1 28.8 16 32c13.9-3.2 14-14.8 14-14.8V.8H2zm25.8 16.4s-.1 2.5-1.5 5.2c-2 3.7-5.5 6.2-10.3 7.4C4.5 26.9 4.2 17.5 4.2 17.2V2.9h23.7v14.3z"/></g></g></svg><svg id="security-m-actived" viewBox="-1 -1 34 34" width="34" height="34" x="238" y="136"><style>.cbst0{fill:none}.cbst1{fill:#00a4ff}</style><path class="cbst0" d="M-288.5-2205.5h-2v-2c0-4.4-3.6-8-8-8s-8 3.6-8 8v2h-2.1v4h.1v8h-.1v4h20v-16zm-4 12h-12v-8h12v8zm0-12h-12 2v-2c0-2.2 1.8-4 4-4s4 1.8 4 4v2h2zm-32-22v30.5s.2 21.6 26 27.5c25.8-5.9 26-27.5 26-27.5v-30.5h-52zm48 30.4s-.1 4.6-2.8 9.7c-3.6 6.9-10.1 11.5-19.2 13.8-21.4-5.4-22-22.7-22-23.4v-26.5h44v26.4z"/><g id="cbXMLID_11_"><g id="cbXMLID_78_"><path id="cbXMLID_79_" class="cbst1" d="M21.4 12.6h-1.1v-1.1h-2.2v1.1h-4.3v-1.1h-2.2v1.1h-1.1v8.5h10.8v-8.5zm-2.1 6.5h-6.5v-4.3h6.5v4.3zM16 9.4c1.2 0 2.2 1 2.2 2.2h2.2c0-2.4-1.9-4.3-4.3-4.3s-4.3 1.9-4.3 4.3H14c-.2-1.3.8-2.2 2-2.2zM2 .8v16.4S2.1 28.8 16 32c13.9-3.2 14-14.8 14-14.8V.8H2zm25.8 16.4s-.1 2.5-1.5 5.2c-2 3.7-5.5 6.2-10.3 7.4C4.5 26.9 4.2 17.5 4.2 17.2V2.9h23.7v14.3z"/></g></g></svg><svg id="storage-m" viewBox="-1 -1 34 34" width="34" height="34" x="238" y="170"><style>.ccst0{fill-rule:evenodd;clip-rule:evenodd;fill:#7c848e}</style><g id="ccXMLID_17_"><g id="ccXMLID_105_"><path id="ccXMLID_106_" class="ccst0" d="M4 8.9L16 2V0L2 8v16l14 8v-2L4 23.1V8.9zm25.2-1.4L16 0v2l11.6 6.6 1.6-1.1zM16 24l7-4v-8l-7-4v2l5.3 3-5.3 3-5.2-3 5.3-3V8l-7 4v8l6.9 4v-1 1zm1-6.6l4-2.3v4l-4 2.3v-4zm-2 4l-4-2.3v-4l4 2.3v4zM30 8v2-2zm0 3l-2 1.3v10.8L16 30v2l14-8V11z"/></g></g></svg><svg id="storage-m-actived" viewBox="-1 -1 34 34" width="34" height="34" x="238" y="204"><style>.cdst0{fill-rule:evenodd;clip-rule:evenodd;fill:#00a4ff}</style><g id="cdXMLID_17_"><g id="cdXMLID_105_"><path id="cdXMLID_106_" class="cdst0" d="M29.2 7.5L16 0v2l11.6 6.6 1.6-1.1zM4 8.9L16 2V0L2 8v16l14 8v-2L4 23.1V8.9zM30 11l-2 1.3v10.8L16 30v2l14-8V11zm0-3v2-2zM16 24l7-4v-8l-7-4v2l5.3 3-5.3 3-5.2-3 5.3-3V8l-7 4v8l6.9 4v-1 1zm1-6.6l4-2.3v4l-4 2.3v-4zm-2 4l-4-2.3v-4l4 2.3v4z"/></g></g></svg><svg id="title-arrow" viewBox="-1 -1 18 18" width="18" height="18" x="68" y="238"><style>.cest0{fill-rule:evenodd;clip-rule:evenodd;fill:#aaa}</style><g id="ceXMLID_6_"><g id="ceXMLID_50_"><path id="ceXMLID_51_" class="cest0" d="M5.9 4.8L9.1 8l-3.2 3.2 1.1 1L11.2 8 7 3.8l-1.1 1zM8 0C3.6 0 0 3.6 0 8s3.6 8 8 8 8-3.6 8-8-3.6-8-8-8zm0 15c-3.9 0-7-3.1-7-7s3.1-7 7-7 7 3.1 7 7-3.1 7-7 7z"/></g></g></svg><svg id="video-m" viewBox="-1 -1 34 34" width="34" height="34" y="238"><style>.cfst0{fill:none}.cfst1{fill-rule:evenodd;clip-rule:evenodd;fill:#7c848e}</style><path class="cfst0" d="M-288.5-2205.5h-2v-2c0-4.4-3.6-8-8-8s-8 3.6-8 8v2h-2.1v4h.1v8h-.1v4h20v-16zm-4 12h-12v-8h12v8zm0-12h-12 2v-2c0-2.2 1.8-4 4-4s4 1.8 4 4v2h2zm-32-22v30.5s.2 21.6 26 27.5c25.8-5.9 26-27.5 26-27.5v-30.5h-52zm48 30.4s-.1 4.6-2.8 9.7c-3.6 6.9-10.1 11.5-19.2 13.8-21.4-5.4-22-22.7-22-23.4v-26.5h44v26.4z"/><g id="cfXMLID_7_"><g id="cfXMLID_50_"><path id="cfXMLID_51_" class="cfst1" d="M26 13.2v-.1c0-5.5-4.5-10-10-10S6 7.5 6 13v.1c-3.4.7-6 3.7-6 7.4 0 4 3.1 7.2 7 7.5h7v-2H7.1C4.3 25.8 2 23.4 2 20.5c0-2.6 1.9-4.9 4.4-5.4l1.6-.3V13c0-4.4 3.6-8 8-8s8 3.6 8 8v1.9l1.6.3c2.6.5 4.4 2.8 4.4 5.4 0 2.9-2.3 5.3-5.1 5.5H18v2h7c3.9-.3 7-3.5 7-7.5 0-3.7-2.6-6.8-6-7.4zm-5.7 3.9L13.8 13c-.1-.1-.2-.1-.3-.1-.3 0-.5.2-.5.5v8.2c0 .3.2.5.5.5.1 0 .2 0 .3-.1l6.5-4.1c.3-.2.3-.6 0-.8zM15 18.9v-2.8l2.2 1.4-2.2 1.4z"/></g></g></svg><svg id="video-m-actived" viewBox="-1 -1 34 34" width="34" height="34" x="34" y="34"><style>.cgst0{fill:none}.cgst1{fill-rule:evenodd;clip-rule:evenodd;fill:#00a4ff}</style><path class="cgst0" d="M-288.5-2205.5h-2v-2c0-4.4-3.6-8-8-8s-8 3.6-8 8v2h-2.1v4h.1v8h-.1v4h20v-16zm-4 12h-12v-8h12v8zm0-12h-12 2v-2c0-2.2 1.8-4 4-4s4 1.8 4 4v2h2zm-32-22v30.5s.2 21.6 26 27.5c25.8-5.9 26-27.5 26-27.5v-30.5h-52zm48 30.4s-.1 4.6-2.8 9.7c-3.6 6.9-10.1 11.5-19.2 13.8-21.4-5.4-22-22.7-22-23.4v-26.5h44v26.4z"/><g id="cgXMLID_7_"><g id="cgXMLID_50_"><path id="cgXMLID_51_" class="cgst1" d="M26 13.1V13c0-5.5-4.5-10-10-10S6 7.5 6 13v.1c-3.4.7-6 3.7-6 7.4 0 4 3.1 7.2 7 7.5h7v-2H7.1C4.3 25.8 2 23.4 2 20.5c0-2.6 1.9-4.9 4.4-5.4l1.6-.3V13c0-4.4 3.6-8 8-8s8 3.6 8 8v1.9l1.6.3c2.6.5 4.4 2.8 4.4 5.4 0 2.9-2.3 5.3-5.1 5.5H18v2h7c3.9-.3 7-3.5 7-7.5 0-3.7-2.6-6.8-6-7.5zm-5.7 4L13.8 13c-.1-.1-.2-.1-.3-.1-.3 0-.5.2-.5.5v8.2c0 .3.2.5.5.5.1 0 .2 0 .3-.1l6.5-4.1c.3-.2.3-.6 0-.8zM15 18.9v-2.8l2.2 1.4-2.2 1.4z"/></g></g></svg><svg id="voice-service-m" viewBox="8 -13 34 34" width="34" height="34" y="34"><style>.chst0{fill:none}.chst1{fill:#7c848e}</style><path class="chst0" d="M-279.5-2217.5h-2v-2c0-4.4-3.6-8-8-8s-8 3.6-8 8v2h-2.1v4h.1v8h-.1v4h20v-16h.1zm-4 12h-12v-8h12v8zm0-12h-12 2v-2c0-2.2 1.8-4 4-4s4 1.8 4 4v2h2zm-32-22v30.5s.2 21.6 26 27.5c25.8-5.9 26-27.5 26-27.5v-30.5h-52zm48 30.4s-.1 4.6-2.8 9.7c-3.6 6.9-10.1 11.5-19.2 13.8-21.4-5.4-22-22.7-22-23.4v-26.5h44v26.4z"/><path class="chst1" d="M13.7-6H37V9h2V-8H13.7c-.3-.6-1-1-1.7-1-1.1 0-2 .9-2 2s.9 2 2 2c.7 0 1.4-.4 1.7-1zM38 13c-.7 0-1.4.4-1.7 1H13V-1h-2v17h25.3c.3.6 1 1 1.7 1 1.1 0 2-.9 2-2s-.9-2-2-2zm-4-6V3h-2v4h2zm-4 2V0h-2v4h-2v-7h-2v7h-2V0h-2v4h-2V3h-2v4h2V6h2v3h2V6h2v5h2V6h2v3h2z"/></svg><svg id="voice-service-m-actived" viewBox="8 -13 34 34" width="34" height="34" x="34" y="238"><style>.cist0{fill:none}.cist1{fill:#00a4ff}</style><path class="cist0" d="M-279.5-2217.5h-2v-2c0-4.4-3.6-8-8-8s-8 3.6-8 8v2h-2.1v4h.1v8h-.1v4h20v-16h.1zm-4 12h-12v-8h12v8zm0-12h-12 2v-2c0-2.2 1.8-4 4-4s4 1.8 4 4v2h2zm-32-22v30.5s.2 21.6 26 27.5c25.8-5.9 26-27.5 26-27.5v-30.5h-52zm48 30.4s-.1 4.6-2.8 9.7c-3.6 6.9-10.1 11.5-19.2 13.8-21.4-5.4-22-22.7-22-23.4v-26.5h44v26.4z"/><path class="cist1" d="M13.7-6H37V9h2V-8H13.7c-.3-.6-1-1-1.7-1-1.1 0-2 .9-2 2s.9 2 2 2c.7 0 1.4-.4 1.7-1zM38 13c-.7 0-1.4.4-1.7 1H13V-1h-2v17h25.3c.3.6 1 1 1.7 1 1.1 0 2-.9 2-2s-.9-2-2-2zm-4-6V3h-2v4h2zm-4 2V0h-2v4h-2v-7h-2v7h-2V0h-2v4h-2V3h-2v4h2V6h2v3h2V6h2v5h2V6h2v3h2z"/></svg></svg>