<?xml version="1.0" encoding="utf-8"?>
<!-- Generator: Adobe Illustrator 22.1.0, SVG Export Plug-In . SVG Version: 6.00 Build 0)  -->
<svg version="1.1" id="圖層_1" xmlns="http://www.w3.org/2000/svg" xmlns:xlink="http://www.w3.org/1999/xlink" x="0px" y="0px"
	 width="48px" height="48px" viewBox="0 0 48 48" style="enable-background:new 0 0 48 48;" xml:space="preserve">
<style type="text/css">
	.st0{fill:#7C838F;}
</style>
<g>
	<path class="st0" d="M47.5,18.4c-1-2.6-5.8-1.4-7.6-1c0,0.7-0.2,1.6-0.2,2.3l1.6,0.5l-1.6,0.2c0,0.9,0,1.6,0,2.5l1.1,0.7l-1.1,0.2
		c0,0.9,0,1.8,0.2,2.7l1.1,0.2l-1.1,0.2c0,0.7,0.2,1.1,0.2,1.8c1.8,0.7,3.9,0.5,5.3-0.7C47.9,25.5,48.6,21.8,47.5,18.4z"/>
	<path class="st0" d="M8.3,17.4c-1.8-0.5-6.6-1.6-7.8,1.1c-1.1,3.4-0.2,7.1,2.3,9.6c1.6,1.2,3.6,1.5,5.2,0.8c0-0.7,0.2-1.1,0.2-1.8
		l-1.1-0.2l1.2-0.3c0-0.9,0.2-1.8,0.2-2.7l-1.1-0.3l1.1-0.5v-2.5l-1.6-0.2l1.6-0.5C8.5,19,8.3,18.1,8.3,17.4z"/>
</g>
<g>
	<g>
		<path class="st0" d="M9.8,3.5c-0.1,0-0.1,0-0.1,0l0,0c-2.4,0-6,1.1-6,1.1c-1,0.5-1.1,2.1-1.1,2.1v8.4v0.4h2v-0.4V6.8
			c0-0.1,0.1-0.3,0.1-0.4c1.2-0.3,3.5-0.9,5-0.9l0,0l0,0h0.1V3.5L9.8,3.5z"/>
	</g>
	<g>
		<path class="st0" d="M38.2,3.5c-1.1,0-8.6,0.2-14.2,6l0,0c-5.6-5.7-13.1-6-14.2-6v2c0.8,0,7.7,0.2,12.8,5.4l0.4,0.4V42
			c-1.6-0.7-3.9-1.9-6.5-3.1c-0.4-0.2-2.8-1.3-7-1.3c-1.6,0-3.2,0.2-4.8,0.5c-0.1-0.1-0.1-0.2-0.1-0.2V31h-2c0,3.4,0,6.1,0,6.8
			c0,2,2,2.3,2,2.3c1.9-0.4,3.5-0.5,4.9-0.5c4,0,6.2,1.1,6.2,1.1c3.2,1.5,6.1,2.9,7.5,3.6c0.3,0.1,0.6,0.2,0.9,0.2s0.6-0.1,0.9-0.2
			l0,0c1.4-0.7,4.3-2.1,7.5-3.6c0,0,2.2-1.1,6.2-1.1c1.4,0,3.1,0.1,4.9,0.5c0,0,2-0.3,2-2.3c0-0.7,0-3.5,0-6.8h-2v6.8
			c0,0.1,0,0.2-0.1,0.2c-1.7-0.3-3.3-0.5-4.8-0.5c-4.2,0-6.6,1.1-7,1.3c-2.6,1.2-5,2.4-6.5,3.1V11.4l0.4-0.4
			c5.1-5.2,12-5.4,12.8-5.4h0.1l0,0l0,0c1.5,0,3.9,0.6,5,0.9c0,0.1,0.1,0.3,0.1,0.4v8.3v0.4h2v-0.4V6.7c0,0-0.1-1.6-1.1-2.1
			c0,0-3.6-1.1-6-1.1l0,0C38.4,3.5,38.3,3.5,38.2,3.5L38.2,3.5z"/>
	</g>
</g>
</svg>
