<svg xmlns="http://www.w3.org/2000/svg" width="48" height="48" viewBox="0 0 48 48">
  <title>安全_专家服务_48x48灰</title>
  <path d="M43,11.5v15c0,.1-1.3,14.6-19,18.9C6.5,41.2,5,27.1,5,26.6V2.5H45V.5H3V26.6S4.2,43,24,47.5c19.8-4.6,21-20.9,21-20.9V11.5Z" style="fill: #7c848e"/>
  <path d="M24,11.5a6,6,0,1,0,6,6A6,6,0,0,0,24,11.5Zm0,10a4,4,0,1,1,4-4A4,4,0,0,1,24,21.5Z" style="fill: #7c848e"/>
  <path d="M20,27.5h8a5.006,5.006,0,0,1,5,5h2a7,7,0,0,0-7-7H20a7,7,0,0,0-7,7h2A5.006,5.006,0,0,1,20,27.5Z" style="fill: #7c848e"/>
</svg>
